<svg id="Icon" height="512" viewBox="0 0 64 64" width="512" xmlns="http://www.w3.org/2000/svg"><path d="m58.20948 39.00131h-48.74402l2.66742 17.06995c.12787.81818.83258 1.42133 1.66071 1.42133h45.34161c1.03174 0 1.81995-.92096 1.66064-1.94031l-2.58636-16.55096z" fill="#3374ba"/><path d="m31.62546 53.30696-1.29199-8.26855h24.45264l1.29199 8.26855z" fill="#faa629"/><path d="m32.46918 53.30697c-.59668-3.81867 2.356-7.26855 6.221-7.26855h16.25214l-.15625-1h-24.45263l1.29199 8.26855z" fill="#f78c1e"/><path d="m7.61573 27.16434-4.40509 26.7954c-.20425 1.2424.77654 2.36222 2.03503 2.32349l6.88723-.21195z" fill="#bdbdbd"/><path d="m56.27869 26.64529c-.12787-.81818-.83258-1.42133-1.66071-1.42133h-45.34161c-1.03174 0-1.81995.92096-1.66064 1.94037l1.84973 11.83698h48.74402z" fill="#57a0d7"/><path d="m11.46546 41.00131c-1.13109-7.23816 4.46559-13.77734 11.79159-13.77734h33.1121l-.09045-.57867c-.12789-.81819-.83264-1.42133-1.66076-1.42133h-45.34151c-1.03178 0-1.82.92096-1.6607 1.94037l1.84973 11.83698 2.66741 17.06992c.12785.81819.83259 1.42135 1.66071 1.42135h.24884l-2.57697-16.49127z" fill="#3d82c4"/><path d="m14.03998 57.49002h-.25c-.82001 0-1.52997-.59998-1.65997-1.41998l-2.66003-17.07001h1.85004c0 .65997.03998 1.32996.14996 2l2.57001 16.48999z" fill="#2b66b1"/><circle cx="31.816" cy="18.507" fill="#f9bf2c" r="12"/><path d="m21.81635 20.50742c0-6.62738 5.37262-12 12-12 2.80371 0 5.37671.96924 7.41949 2.58051-2.19751-2.78595-5.59576-4.58051-9.41949-4.58051-6.62738 0-12 5.37262-12 12 0 3.82373 1.79456 7.22198 4.58051 9.41949-1.61127-2.04279-2.58051-4.61578-2.58051-7.41949z" fill="#f9a822"/><path d="m31.81641 17.50735c-1.10303 0-2-.89697-2-2s.89697-2 2-2 2 .89697 2 2c0 .55225.44775 1 1 1s1-.44775 1-1c0-1.85828-1.27972-3.41071-3-3.85797v-1.17181c0-.55225-.44775-1-1-1s-1 .44775-1 1v1.17181c-1.72028.44727-3 1.99969-3 3.85797 0 2.20557 1.79443 4 4 4 1.10303 0 2 .89697 2 2s-.89697 2-2 2-2-.89697-2-2c0-.55225-.44775-1-1-1s-1 .44775-1 1c0 1.85828 1.27972 3.41071 3 3.85797v1.17181c0 .55225.44775 1 1 1s1-.44775 1-1v-1.17181c1.72028-.44727 3-1.99969 3-3.85797 0-2.20557-1.79443-4-4-4z" fill="#ffe0b2"/></svg>