<svg id="icons" enable-background="new 0 0 64 64" height="64" viewBox="0 0 64 64" width="64" xmlns="http://www.w3.org/2000/svg"><g><g><path d="m59.139 6.72c1.15 1.141 1.15 2.99 0 4.141l-4.14 4.139-4.14-4.14c-.57-.58-.86-1.32-.86-2.08 0-.74.29-1.5.86-2.07 1.14-1.14 3-1.14 4.14 0v.01c1.15-1.15 3-1.15 4.14 0z" fill="#ed5565"/></g><g><path d="m45.999 18c1.66 0 3 1.34 3 3s-1.34 3-3 3-3-1.34-3-3 1.34-3 3-3z" fill="#eac6bb"/></g><g><path d="m45.999 24c1.66 0 3 1.34 3 3s-1.34 3-3 3-3-1.34-3-3 1.34-3 3-3z" fill="#eac6bb"/></g><g><path d="m45.999 36c1.66 0 3 1.34 3 3s-1.34 3-3 3-3-1.34-3-3 1.34-3 3-3z" fill="#eac6bb"/></g><g><path d="m45.999 30c1.66 0 3 1.34 3 3s-1.34 3-3 3-3-1.34-3-3 1.34-3 3-3z" fill="#eac6bb"/></g><g><path d="m31.999 38c1.11 0 2 .9 2 2s-.89 2-2 2c-1.1 0-2-.9-2-2s.9-2 2-2z" fill="#4a89dc"/></g><g><path d="m42.999 45h-23c-1.1 0-2-.9-2-2v-18-22c0-1.1.9-2 2-2h24c1.1 0 2 .9 2 2v15c-1.66 0-3 1.34-3 3s1.34 3 3 3c-1.66 0-3 1.34-3 3s1.34 3 3 3c-1.66 0-3 1.34-3 3s1.34 3 3 3c-1.66 0-3 1.34-3 3s1.34 3 3 3v1c0 1.1-.9 2-2 2zm-11-3c1.11 0 2-.9 2-2s-.89-2-2-2c-1.1 0-2 .9-2 2s.9 2 2 2zm3-11.68c2.36-1.12 4-3.53 4-6.32v-4c0-3.87-3.14-7-7-7s-7 3.13-7 7v4c0 2.79 1.64 5.2 4 6.32.91.439 1.93.68 3 .68s2.09-.24 3-.68z" fill="#5d9cec"/></g><g><path d="m32.999 59-2 4h-27l6-12 2 .7 19 6.6z" fill="#656d78"/></g><g><path d="m42.999 45-12 13.3-19-6.6v-32.7c3.32 0 6 2.68 6 6v18c0 1.1.9 2 2 2z" fill="#eac6bb"/></g><g><path d="m13.139 6.72c1.141 1.141 1.141 2.99 0 4.141l-4.14 4.139-4.14-4.14c-.58-.58-.86-1.32-.86-2.08 0-.74.28-1.5.86-2.07 1.14-1.14 2.989-1.14 4.14 0v.01c1.14-1.15 3-1.15 4.14 0z" fill="#ed5565"/></g><path d="m12.03 59c-.553 0-1.005-.447-1.005-1s.442-1 .994-1h.011c.552 0 1 .447 1 1s-.448 1-1 1z" fill="#ffce54"/><g><path d="m29.03 6c-.553 0-1.005-.447-1.005-1s.442-1 .994-1h.011c.552 0 1 .447 1 1s-.448 1-1 1z" fill="#4a89dc"/></g><g><path d="m35 6h-3c-.553 0-1-.447-1-1s.447-1 1-1h3c.553 0 1 .447 1 1s-.447 1-1 1z" fill="#4a89dc"/></g><path d="m40 32.001h-16c-.553 0-1-.447-1-1s.447-1 1-1h16c.553 0 1 .447 1 1s-.447 1-1 1z" fill="#4a89dc"/><g><path d="m38.999 20c0 2.38-1.18 4.479-3 5.74-1.13.8-2.51 1.26-4 1.26s-2.87-.46-4-1.26c-1.82-1.261-3-3.36-3-5.74 0-3.87 3.13-7 7-7s7 3.13 7 7z" fill="#ffce54"/></g><path d="m35.999 25.74c-1.13.8-2.51 1.26-4 1.26s-2.87-.46-4-1.26c-1.82-1.261-3-3.36-3-5.74v4c0 2.38 1.18 4.479 3 5.74 1.04.729 2.29 1.18 3.64 1.239h.36.36c1.35-.06 2.6-.51 3.64-1.239 1.82-1.261 3-3.36 3-5.74v-4c0 2.38-1.18 4.479-3 5.74z" fill="#f6bb42"/><g fill="#edab37"><path d="m32.999 26.923c-.327.047-.66.077-1 .077s-.673-.03-1-.077v3.981c.212.029.422.065.64.075h.36.36c.218-.01.428-.046.64-.075z"/><path d="m36 25.739v4c.013-.009.023-.02.036-.028.196-.138.385-.286.565-.443.142-.124.275-.259.406-.395.039-.04.081-.078.12-.119.16-.174.312-.355.453-.545.003-.004.005-.007.008-.01.146-.196.284-.401.411-.613v-4c-.509.851-1.185 1.589-1.999 2.153z"/><path d="m25.998 23.586v4c.51.851 1.186 1.589 2 2.153v-4c-.814-.564-1.49-1.302-2-2.153z"/></g><g><path d="m31.999 22.999c-.553 0-1-.447-1-1v-4c0-.553.447-1 1-1s1 .447 1 1v4c0 .553-.447 1-1 1z" fill="#edab37"/></g></g></svg>