<svg id="svg8" height="512" viewBox="0 0 16.933333 16.933333" width="512" xmlns="http://www.w3.org/2000/svg" xmlns:svg="http://www.w3.org/2000/svg"><g id="layer2"><path id="circle2650" d="m11.376736 1.849665c-2.042985-.000001-3.70302 1.662072-3.70302 3.70502s1.660035 3.705021 3.70302 3.70502c2.042984 0 3.705087-1.662072 3.705087-3.70502 0-2.042947-1.662103-3.70502-3.705087-3.70502z" fill="#ffca28"/><path id="path2671" d="m11.118779 4.035511c-.450603.116854-.773412.513251-.773412.986686 0 .298929.132908.526153.383429.649561.209257.103075.478303.123378.618223.138075.247929.02603.366458.04681.447419.08669.08097.03989.09926.09498.09926.18847-.000007.277885-.227932.496098-.509391.500398-.248164-.0118-.422735-.147307-.509391-.423798-.102779-.328914-.596048-.174711-.49327.154194.110536.35268.35702.647231.737133.749339v.294298c0 .342975.515942.345648.515942 0v-.288251c.447994-.112817.774909-.512754.77492-.986179 0-.298928-.131526-.525499-.386451-.651072-.19592-.09655-.42525-.116738-.618728-.137071-.193478-.02028-.349999-.04047-.445907-.08766-.08097-.03989-.09725-.09244-.09725-.18696 0-.277874.225403-.497667.506873-.500906.250409.01004.425565.1477.512415.424814.117185.325472.581709.177793.492764-.154204-.110722-.353286-.352559-.64571-.738642-.750851v-.290767c.0017-.144852-.116157-.258694-.260992-.256997-.142471.0019-.256612.114505-.254946.25698z" fill="#e4eff8" font-variant-ligatures="normal" font-variant-position="normal" font-variant-caps="normal" font-variant-numeric="normal" font-variant-alternates="normal" font-feature-settings="normal" text-indent="0" text-align="start" text-decoration-line="none" text-decoration-style="solid" text-decoration-color="#000000" text-transform="none" text-orientation="mixed" white-space="normal" shape-padding="0" isolation="auto" mix-blend-mode="normal" solid-color="#000000" solid-opacity="1" vector-effect="none"/><path id="path2659" d="m15.32785 12.341479c-.178485-.476131-.712641-.706755-1.185421-.543093l-3.878715 1.342488c-.06058-.282829-.231609-.540971-.500212-.696048l-2.746046-1.585809s-.545072-.318312-1.460853-.318313c-.68137-.000002-1.455875.373188-2.3817.91122-.0045 1.594189 0 2.905104 0 4.359159 0 0 .05087-.0013.077-.0069.361352-.0766 1.012291-.193261 1.509423-.193261.243402 0 .667817.277834 1.156483.61337s1.065702.708966 1.755911.708966c.443442 0 1.031124-.229305 1.761596-.550844.730472-.321538 1.570482-.747477 2.368775-1.171965 1.59012-.845538 3.000623-1.682395 3.012928-1.690272.415142-.218255.689393-.702363.510831-1.178698z" fill="#ffc6a0"/><g fill="#ffaf7a"><path id="path2753" d="m3.174903 11.451713c-.0045 1.59419 0 2.905157 0 4.359213 0 0 .05087-.0012.077-.0067.183517-.0389.441909-.08808.71673-.127118v-4.300304c0-.113663-.0383-.219327-.101285-.306435-.221332.113952-.451669.24142-.692445.381344z"/><path id="path2743" d="m11.804037 14.681366c-.798294.424488-1.638303.850428-2.368776 1.171965-.730471.32154-1.318153.550844-1.761595.550844-.69021 0-1.267246-.37343-1.755912-.708966s-.913081-.61337-1.156483-.61337c-.497132 0-1.148071.116665-1.509422.193261-.0248.0052-.0502.0067-.07545.0047 0 .06562-.0015.330196-.0015.531409.02292.000661.0514-.0015.077-.0069.361351-.0766 1.01229-.19326 1.509422-.19326.243402 0 .667817.277834 1.156483.613369.488666.335537 1.065702.708967 1.755912.708967.443442 0 1.031124-.229305 1.761595-.550844.730472-.321539 1.570482-.747478 2.368776-1.171965 1.590119-.845537 3.000622-1.682394 3.012927-1.690271.403726-.212271.670775-.676.521141-1.139461-.08249.258057-.275534.480844-.521191.610252-.0123.0078-1.422808.844734-3.012927 1.69027z"/><path id="path2663" d="m7.37866 12.900139c-.303559-.168395-.562829.279518-.265609.458865l1.591579.917723c.503786.290855 1.154484.117255 1.445345-.386521.226019-.391469.168591-.869292-.10335-1.200385.174558.245069.202122.577758.04134.856236-.219862.380805-.703327.510265-1.100929.282143z" font-variant-ligatures="normal" font-variant-position="normal" font-variant-caps="normal" font-variant-numeric="normal" font-variant-alternates="normal" font-feature-settings="normal" text-indent="0" text-align="start" text-decoration-line="none" text-decoration-style="solid" text-decoration-color="#000000" text-transform="none" text-orientation="mixed" white-space="normal" shape-padding="0" isolation="auto" mix-blend-mode="normal" solid-color="#000000" solid-opacity="1" vector-effect="none"/></g><path id="rect2655" d="m.5291505 10.847128c-.2885727 0-.5291505.241091-.5291505.529658v4.761235c0 .288568.2405778.529141.5291505.529141h2.3806605c.288573 0 .529667-.240573.529667-.529141v-4.761235c0-.288567-.241094-.529658-.529667-.529658z" fill="#549ad4"/><path id="circle2669" d="m1.3228759 15.609912c-.0000003.146118-.1184546.26457-.2645753.26457-.14612068 0-.26457497-.118452-.26457523-.26457-.00000029-.146118.11845416-.264571.26457523-.264571.1461211 0 .2645756.118453.2645753.264571z" fill="#e4eff8"/><path id="path2709" d="m1.058301 16.138021c-.288573 0-.5291505-.240573-.5291505-.529141v-4.761235-.000529.000012c-.2885728 0-.5291505.241091-.5291505.529658v4.761235c0 .288568.2405777.529141.5291505.529141h2.3806605c.288573 0 .529667-.240573.5294025-.529141z" fill="#3588cb"/><path id="path2765" d="m9.039482 2.683682c-.832866.679952-1.365766 1.714029-1.365766 2.871003 0 2.042948 1.660035 3.705021 3.70302 3.70502 1.15592 0 2.189514-.532613 2.869504-1.364708-.638568.521822-1.45329.835567-2.340354.835567-2.042984.000001-3.70302-1.662072-3.70302-3.70502 0-.887826.314403-1.703055.836616-2.341862z" fill="#ecb200"/><path id="path2768" d="m10.170417 3.230681c-.0421.0027-.07985.01335-.116036.03504-.436867.252221-.790967.622562-1.023407 1.070261-.162482.31914.3071.554064.468736.244129.185955-.358166.470788-.6556.820287-.85738.243375-.143628.129936-.508594-.14958-.49205z" fill="#e4eff8" font-variant-ligatures="normal" font-variant-position="normal" font-variant-caps="normal" font-variant-numeric="normal" font-variant-alternates="normal" font-feature-settings="normal" text-indent="0" text-align="start" text-decoration-line="none" text-decoration-style="solid" text-decoration-color="#000000" text-transform="none" text-orientation="mixed" white-space="normal" shape-padding="0" isolation="auto" mix-blend-mode="normal" solid-color="#000000" solid-opacity="1" vector-effect="none"/><path id="path2770" d="m8.74778 5.263671c-.01075.09689-.01563.193521-.01563.291002 0 .352847.529281.352847.529281 0 0-.07798.0051-.154907.01367-.232411.02188-.169792-.121843-.311214-.2920375-.292726-.1255035.01292-.2233935.108528-.2352835.234135z" fill="#e4eff8" font-variant-ligatures="normal" font-variant-position="normal" font-variant-caps="normal" font-variant-numeric="normal" font-variant-alternates="normal" font-feature-settings="normal" text-indent="0" text-align="start" text-decoration-line="none" text-decoration-style="solid" text-decoration-color="#000000" text-transform="none" text-orientation="mixed" white-space="normal" shape-padding="0" isolation="auto" mix-blend-mode="normal" solid-color="#000000" solid-opacity="1" vector-effect="none"/><path id="path2778" d="m11.376735 10.581524h-.153474l.341054-.339497c.167358-.167596.0464-.461825-.196881-.452147-.06856.0022-.130485.0278-.178278.07699l-.793209.793195c-.103626.103381-.103626.271254 0 .374636l.793209.793194c.254849.244814.619633-.121974.375159-.373085l-.343637-.343632h.156058c3.064978 0 5.556596-2.486406 5.556597-5.556497 0-3.070091-2.490157-5.55443-5.556597-5.55443-.0084-.000404-.01689-.000404-.02532.000002-.328032.035612-.314821.523439.02532.529143 2.779004 0 5.026929 2.251679 5.026928 5.025289 0 2.77361-2.247924 5.026839-5.026929 5.026839z" fill="#549ad4" font-variant-ligatures="normal" font-variant-position="normal" font-variant-caps="normal" font-variant-numeric="normal" font-variant-alternates="normal" font-feature-settings="normal" text-indent="0" text-align="start" text-decoration-line="none" text-decoration-style="solid" text-decoration-color="#000000" text-transform="none" text-orientation="mixed" white-space="normal" shape-padding="0" isolation="auto" mix-blend-mode="normal" solid-color="#000000" solid-opacity="1" vector-effect="none"/></g></svg>