<svg id="Layer_1" enable-background="new 0 0 512 512" viewBox="0 0 512 512" xmlns="http://www.w3.org/2000/svg"><g clip-rule="evenodd" fill-rule="evenodd"><g><path d="m39.056 361.357 11.7 127.472c9.018-5.206 16.982-9.283 24.267-12.278 8.595-3.816 17.036-6.017 25.701-6.294 9.205-.406 17.978 1.472 27.575 5.477.01.004.02.008.031.013l63.663 26.589c14.496 6.055 28.91 7.156 43.653 1.719l182.189-67.19c16.256-5.996 24.65-24.201 18.655-40.461-5.993-16.258-24.202-24.654-40.459-18.659l-126.878 46.791c.137-.275.271-.552.401-.832 8.085-17.351.48-38.226-16.871-46.311l-110.292-51.386c-15.007-4.673-29.589-3.352-43.508 3.954z" fill="#ffd6bd"/><path d="m229.935 426.069c14.928 6.947 32.409 2.324 42.171-10.123-.53 2.628-1.373 5.23-2.551 7.759-8.096 17.375-28.94 24.979-46.31 16.871-21.465-10.02-43-19.828-64.515-29.75-4.005-1.847-5.77-6.633-3.924-10.638 1.847-4.005 6.633-5.77 10.638-3.923 21.472 9.902 42.928 19.769 64.491 29.804z" fill="#f9c6aa"/><path d="m49.002 469.725 1.753 19.104c9.019-5.206 16.983-9.283 24.268-12.278 8.595-3.816 17.036-6.017 25.7-6.294 9.205-.406 17.978 1.472 27.576 5.477.01.004.02.008.031.013l63.663 26.589c14.496 6.055 28.91 7.156 43.652 1.719l182.19-67.19c16.257-5.996 24.65-24.201 18.655-40.461-.179-.487-.371-.966-.572-1.438-2.254 10.125-9.436 18.959-19.837 22.795l-182.19 67.19c-14.743 5.437-29.157 4.336-43.653-1.719l-63.662-26.589c-.01-.004-.02-.008-.031-.013-9.597-4.005-18.37-5.883-27.575-5.477-8.664.277-17.106 2.478-25.701 6.294-7.284 2.996-15.248 7.073-24.267 12.278z" fill="#f9c6aa"/><path d="m51.834 336.979 14.302 155.821c.349 3.802-2.475 7.196-6.275 7.545l-28.799 2.643c-3.8.349-7.195-2.474-7.544-6.276l-14.302-155.822c-.349-3.8 2.476-7.196 6.275-7.545l28.799-2.643c3.8-.348 7.195 2.477 7.544 6.277z" fill="#64b5f6"/><path d="m51.834 336.979.166 1.814-26.97 2.475c-3.8.349-6.624 3.742-6.275 7.545l14.136 154.007-1.829.168c-3.799.348-7.195-2.474-7.544-6.276l-14.301-155.822c-.349-3.802 2.476-7.196 6.275-7.545l28.799-2.644c3.799-.347 7.194 2.476 7.543 6.278z" fill="#42a5f5"/></g><g><path d="m74.032 283.784c5.191-69.197 63.434-124.209 133.9-124.209s128.708 55.012 133.9 124.209c.41 5.467-3.859 10.068-9.341 10.068h-249.117c-5.483-.001-9.751-4.601-9.342-10.068z" fill="#ffda2d"/><path d="m198.129 159.932c3.239-.236 6.508-.357 9.804-.357 70.466 0 128.708 55.012 133.9 124.209.411 5.467-3.859 10.068-9.341 10.068h-19.609c5.482 0 9.751-4.601 9.341-10.068-4.948-65.961-58.1-119.031-124.095-123.852z" fill="#ffc700"/><ellipse cx="207.932" cy="77.003" fill="#ffd6bd" rx="72.572" ry="72.572" transform="matrix(.999 -.042 .042 .999 -3.021 8.708)"/><path d="m207.932 4.431c-2.967 0-5.891.182-8.765.528 35.946 4.328 63.807 34.93 63.807 72.043s-27.861 67.716-63.807 72.044c2.874.346 5.798.528 8.765.528 40.081 0 72.572-32.492 72.572-72.572s-32.491-72.571-72.572-72.571z" fill="#f9c6aa"/></g><g><path d="m348.246 207.633v-33.077c0-5.689 2.321-10.856 6.062-14.596 3.74-3.74 8.907-6.062 14.596-6.062h57.656c5.689 0 10.856 2.323 14.596 6.062 3.741 3.741 6.063 8.908 6.063 14.595v38.223h-16.278v-38.223c0-1.194-.496-2.288-1.294-3.086-.798-.797-1.89-1.293-3.086-1.293h-57.656c-1.196 0-2.29.495-3.087 1.292-.797.798-1.293 1.891-1.293 3.087v33.077h-16.279z" fill="#ffda2d"/><path d="m348.246 207.633v-33.077c0-5.689 2.322-10.856 6.062-14.596s8.907-6.062 14.596-6.062h57.656c5.689 0 10.856 2.323 14.596 6.062.906.906 1.729 1.897 2.456 2.958-3.318-2.273-7.328-3.607-11.639-3.607h-57.656c-5.69 0-10.856 2.322-14.596 6.062-3.741 3.74-6.062 8.906-6.062 14.596v27.664zm88.107 5.145v-33.844c0-1.195-.496-2.288-1.294-3.086s-1.891-1.293-3.086-1.293h-1.033v38.223z" fill="#ffc700"/><path d="m502.812 213.471.001 116.369c0 8.75-7.162 15.913-15.913 15.913h-178.334c-8.752 0-15.913-7.162-15.913-15.913l.001-113.36z" fill="#64b5f6"/><path d="m502.812 213.471.001 116.369c0 8.75-7.162 15.913-15.913 15.913h-178.334c-7.208 0-13.337-4.859-15.275-11.464 1.414.415 2.907.638 4.45.638h178.333c8.752 0 15.913-7.163 15.913-15.914l-.001-105.389z" fill="#42a5f5"/><path d="m419.878 258.661v33.192c0 2.392-1.965 4.357-4.357 4.357h-35.577c-2.392 0-4.357-1.96-4.357-4.357v-29.521z" fill="#ffda2d"/><path d="m419.878 258.661v33.192c0 2.392-1.965 4.357-4.357 4.357h-35.577c-2.392 0-4.357-1.96-4.357-4.357v-1.055h34.522c2.392 0 4.357-1.965 4.357-4.357v-27.331z" fill="#ffc700"/><path d="m301.993 192.446h191.48c5.137 0 9.34 4.203 9.34 9.34v47.321c0 12.153-9.943 22.096-22.096 22.096h-165.968c-12.153 0-22.096-9.943-22.096-22.096v-47.321c0-5.137 4.202-9.34 9.34-9.34z" fill="#42a5f5"/><path d="m482.647 192.446h10.825c5.137 0 9.34 4.203 9.34 9.34v47.32c0 12.153-9.943 22.096-22.096 22.096h-10.826c12.153 0 22.096-9.943 22.096-22.096v-47.32c.001-5.137-4.202-9.34-9.339-9.34z" fill="#2d90f1"/><path d="m350.592 217.369h94.28c1.191 0 2.165.974 2.165 2.165v24.58c0 1.191-.974 2.165-2.165 2.165h-94.28c-1.191 0-2.165-.974-2.165-2.165v-24.58c.001-1.191.975-2.165 2.165-2.165z" fill="#2d90f1"/><path d="m350.592 217.369h94.28c1.191 0 2.165.974 2.165 2.165v3.247h-91.032c-1.191 0-2.165.974-2.165 2.165v21.332h-3.248c-1.191 0-2.165-.974-2.165-2.165v-24.58c.001-1.19.975-2.164 2.165-2.164z" fill="#1d83d4"/></g></g></svg>